# xmcd
#
# Track frame offsets:
#	150
#	11211
#	24767
#	39750
#	56250
#	71686
#	80790
#	91101
#	103780
#	117078
#
# Disc length: 1856 seconds
#
# Revision: 1
# Processed by: cddbd v1.5.1PL0 Copyright (c) Steve Scherf et al.
# Submitted via: audiograbber 1.83.01
#
DISCID=70073e0a
DTITLE=Chris Young - I Wish I Was Lyin'
DYEAR=2004
DGENRE=Country
TTITLE0=Three Rounds
TTITLE1=I Wish I Was Lyin'
TTITLE2=Where Would I Be
TTITLE3=Devil's Thumbprint
TTITLE4=What I Wish I'd Said
TTITLE5=I Know You're Out There
TTITLE6=No Heartache
TTITLE7=Hell No, Heaven Yes
TTITLE8=See Me Cry
TTITLE9=He's My Dad
EXTD=
EXTT0=
EXTT1=
EXTT2=
EXTT3=
EXTT4=
EXTT5=
EXTT6=
EXTT7=
EXTT8=
EXTT9=
PLAYORDER=
